<svg xmlns="http://www.w3.org/2000/svg" xmlns:xlink="http://www.w3.org/1999/xlink" width="387.89" height="412.783" viewBox="0 0 387.89 412.783"><defs><linearGradient id="a" x1="1" y1="0.851" x2="0" y2="0.244" gradientUnits="objectBoundingBox"><stop offset="0" stop-color="#049be7"/><stop offset="1" stop-color="#0ce4a8"/></linearGradient></defs><g transform="translate(-300 -286)"><path d="M478,292.3c-7.4,3.5-26.3,12.9-42,20.9s-43.8,22.3-62.5,31.8c-37.8,19.3-41.5,21.4-41.5,23.5,0,.9,9.7,6.3,26.3,14.6,14.4,7.2,26.7,13.5,27.2,13.9.6.4,25,12.8,54.2,27.4,41.2,20.7,53.8,26.6,55.5,26.1,2.3-.7,12.4-5.8,87.8-44.6,71.7-36.8,70.5-36.2,70.5-38.4,0-1.6-13.9-9-79.3-41.8-43.5-21.8-80-39.7-81-39.7-.9,0-7.8,2.8-15.2,6.3M300.7,388.7c-.4.3-.7,19.2-.7,41.8,0,34.8.2,41.9,1.6,45.8l1.5,4.6,35.2,18.2c56.5,29.2,63.8,32.9,92.2,47.4,14.9,7.6,31.6,16.2,37.3,19.2,5.6,3,10.7,5.1,11.2,4.8,1.2-.7,1.4-90.4.2-92.1-.7-1.1-38.3-20.4-106.7-54.7-20.3-10.2-44.4-22.4-53.5-27.1-17.2-9-17.3-9-18.3-7.9m365.8,7.9c-9.3,4.7-43.8,22.4-76.5,39.2-32.7,16.9-63.9,32.9-69.2,35.7-9,4.6-9.8,5.3-10.5,8.5-.7,4.1.4,87.7,1.3,89.1.5.8,46.4-21.7,64.4-31.7,4.1-2.2,15.4-8.1,25-12.9,9.6-4.9,20.9-10.7,25-13s17-9,28.5-15c11.6-5.9,23.1-12.1,25.7-13.7,7.9-5,7.9-4.8,7.6-52.8-.3-40.7-.3-41.5-2.3-41.7-1.1-.1-9.6,3.6-19,8.3M300.4,514.3c-.3.8-.4,18.9-.2,40.3.4,46.1,0,44.6,10.9,50.3,3.5,1.8,10.7,5.7,15.9,8.6,16.6,9.2,66,34.5,67.5,34.5,1.2,0,1.5-2.3,1.7-12.3.4-22.6-.3-74.2-1-74.8-1.8-1.7-91.8-47.9-93.3-47.9a2.09,2.09,0,0,0-1.5,1.3" fill="url(#a)"/><path d="M653.5,528.8c-17,8.7-43.8,22.5-59.5,30.6-64,33.4-80,41.6-89.8,46.5L494,611l-29.3-14.6c-16-8-30.7-15.5-32.4-16.6-1.8-1.1-3.7-1.7-4.3-1.3-1.2.7-1.4,84.3-.2,86.1.7,1.1,37.6,21.1,55.1,29.9,7.2,3.6,10.2,4.6,12.6,4.2,4.2-.7,13.1-5,38-18.2,11.6-6.2,31.1-16.4,43.5-22.7,38.5-19.8,51.1-26.3,64.5-33.5,7.2-3.8,19-10,26.3-13.8,14.1-7.2,18.7-11.1,19.7-16.7.3-1.8.4-20.6.3-41.8-.3-33.3-.5-38.5-1.8-38.7-.8-.2-15.4,6.8-32.5,15.5" fill="url(#a)"/></g></svg>